<svg width="32" height="33" viewBox="0 0 32 33" fill="none" xmlns="http://www.w3.org/2000/svg">
<path d="M30.375 27.75H1.125C0.492188 27.75 0 28.3125 0 28.875V31.125C0 31.7578 0.492188 32.25 1.125 32.25H30.375C30.9375 32.25 31.5 31.7578 31.5 31.125V28.875C31.5 28.3125 30.9375 27.75 30.375 27.75ZM30.375 18.75H1.125C0.492188 18.75 0 19.3125 0 19.875V22.125C0 22.7578 0.492188 23.25 1.125 23.25H30.375C30.9375 23.25 31.5 22.7578 31.5 22.125V19.875C31.5 19.3125 30.9375 18.75 30.375 18.75ZM30.375 9.75H1.125C0.492188 9.75 0 10.3125 0 10.875V13.125C0 13.7578 0.492188 14.25 1.125 14.25H30.375C30.9375 14.25 31.5 13.7578 31.5 13.125V10.875C31.5 10.3125 30.9375 9.75 30.375 9.75ZM30.375 0.75H1.125C0.492188 0.75 0 1.3125 0 1.875V4.125C0 4.75781 0.492188 5.25 1.125 5.25H30.375C30.9375 5.25 31.5 4.75781 31.5 4.125V1.875C31.5 1.3125 30.9375 0.75 30.375 0.75Z" fill="white"/>
</svg>
