<svg width="32" height="31" viewBox="0 0 32 31" fill="none" xmlns="http://www.w3.org/2000/svg">
<path d="M13.3594 2.21094C12.6562 2.91406 12.7266 3.96875 13.3594 4.67188L21.8672 12.6875H1.6875C0.703125 12.6875 0 13.4609 0 14.375V16.625C0 17.6094 0.703125 18.3125 1.6875 18.3125H21.8672L13.3594 26.3984C12.7266 27.1016 12.7266 28.1562 13.3594 28.8594L14.9062 30.4062C15.6094 31.0391 16.6641 31.0391 17.2969 30.4062L31.0078 16.6953C31.6406 16.0625 31.6406 15.0078 31.0078 14.3047L17.2969 0.664062C16.6641 0.03125 15.6094 0.03125 14.9062 0.664062L13.3594 2.21094Z" fill="black"/>
</svg>
