<svg width="33" height="31" viewBox="0 0 33 31" fill="none" xmlns="http://www.w3.org/2000/svg">
<path d="M19.0703 28.8594C19.7734 28.1562 19.7031 27.1016 19.0703 26.3984L10.5625 18.3125H30.8125C31.7266 18.3125 32.5 17.6094 32.5 16.625V14.375C32.5 13.4609 31.7266 12.6875 30.8125 12.6875H10.5625L19.0703 4.67188C19.7031 3.96875 19.7734 2.91406 19.0703 2.21094L17.5234 0.664062C16.8906 0.03125 15.7656 0.03125 15.1328 0.664062L1.49219 14.375C0.789062 15.0078 0.789062 16.0625 1.49219 16.6953L15.1328 30.4062C15.7656 31.0391 16.8203 31.0391 17.5234 30.4062L19.0703 28.8594Z" fill="black"/>
</svg>
