<svg width="350" height="252" viewBox="0 0 350 252" fill="none" xmlns="http://www.w3.org/2000/svg">
<g clip-path="url(#clip0)">
<path opacity="0.1" d="M181.021 41.1402C158.917 44.8777 136.844 43.2755 115.61 40.945C94.3761 38.6144 73.1949 35.5711 51.0814 36.4885C36.8563 37.0773 21.0145 39.8975 11.082 48.0946C1.52116 55.9787 0.0314427 66.6179 0.0128599 76.222C-0.0119171 83.446 0.613702 90.921 5.73015 96.676C9.28566 100.668 14.7583 103.528 18.8806 107.213C33.2233 120.012 28.8626 140.166 19.4504 157.301C15.0339 165.34 9.63253 173.245 6.62522 181.474C3.61791 189.702 3.21839 198.519 8.60119 205.228C13.9221 211.845 24.2386 215.607 35.0104 217.55C56.8575 221.498 81.1978 219.047 104.748 215.725C156.867 208.371 208.449 196.867 259.921 185.391C278.965 181.142 298.093 176.874 316.44 170.751C326.63 167.342 337.005 163.099 343.586 156.495C351.949 148.127 352.159 136.682 344.1 129.843C330.578 118.376 299.973 120.92 289.514 107.811C283.759 100.593 286.265 90.7909 290.845 82.132C300.666 63.5622 319.649 45.2155 317.19 26.7015C315.492 13.9952 302.543 3.47998 285.187 0.740375C266.994 -2.12939 243.63 3.31263 233.155 16.0995C222.387 29.2738 200.539 37.8428 181.021 41.1402Z" fill="#6C63FF"/>
<path d="M155.714 32.5498H26.9667V93.227H155.714V32.5498Z" fill="#565661"/>
<path d="M153.199 37.0125H29.9337V88.7644H153.199V37.0125Z" fill="#DFE6F5"/>
<path d="M38.6119 61.9943C36.8392 62.2098 35.1055 62.673 33.4613 63.3703L36.8682 60.1287C37.1143 59.865 37.4115 59.6541 37.7416 59.5089C38.2929 59.2981 38.9278 59.4593 39.4914 59.2733C40.3989 58.9634 40.8511 57.8725 41.7554 57.5595C42.3749 57.3488 43.05 57.5595 43.7004 57.5131C44.9981 57.4263 46.0264 56.3664 46.6861 55.2414C47.3457 54.1164 47.7886 52.8551 48.6342 51.8634C49.8327 50.4533 51.691 49.7715 53.029 48.4885C53.6236 47.9182 54.1037 47.2488 54.6736 46.6507C55.7977 45.523 57.222 44.742 58.7769 44.4009C60.3318 44.0597 61.952 44.1726 63.4446 44.7262C63.8484 44.9303 64.2905 45.0475 64.7423 45.0702C65.0984 45.0273 65.4425 44.9146 65.7551 44.7386L69.9486 42.7273C72.2967 43.4808 74.5114 44.5999 76.5114 46.0433C76.8221 46.3172 77.2009 46.5024 77.6078 46.5794C78.7289 46.6693 79.2059 45.2282 79.9213 44.3605C80.9 43.1704 82.7273 42.9845 84.1675 43.533C85.6076 44.0816 86.7319 45.2158 87.754 46.3532C88.2216 46.877 88.7141 47.4317 89.383 47.6393C89.9378 47.77 90.5169 47.7562 91.0648 47.599C94.3017 46.8623 97.147 44.9425 99.043 42.2159C99.331 41.7944 99.6872 41.3048 100.198 41.311C100.445 41.3344 100.682 41.4208 100.886 41.562C102.697 42.614 104.381 43.8701 105.906 45.3057C107.065 46.3966 108.149 47.6021 109.539 48.3769C110.93 49.1517 112.745 49.4058 114.073 48.535C113.857 49.3996 114.693 50.2302 115.563 50.413C116.433 50.5959 117.335 50.3448 118.22 50.2302C119.444 50.0782 120.685 50.1807 121.867 50.531C123.049 50.8814 124.146 51.4721 125.09 52.2663C127.075 52.4858 128.969 53.22 130.584 54.3962C132.198 55.5724 133.479 57.1498 134.298 58.9727C134.954 60.4882 135.824 62.5181 137.457 62.2671C138.005 62.1834 138.531 61.8177 139.07 61.9572C139.433 62.0895 139.754 62.3163 139.999 62.6142C141.399 63.9778 143.31 64.6379 145.072 65.4746C146.835 66.3114 148.619 67.5076 149.238 69.3578C147.711 69.5716 146.203 68.9549 144.682 68.6977C143.162 68.4405 141.306 68.7132 140.579 70.0768C140.287 70.6284 140.191 71.3319 139.68 71.6883C139.331 71.8846 138.931 71.9741 138.531 71.9455C135.06 71.9898 131.631 71.1833 128.543 69.5964C126.449 72.6436 123.349 74.8547 119.788 75.8411C119.688 74.4961 118.289 73.5168 116.938 73.4982C115.588 73.4796 114.33 74.1986 113.29 75.0477C112.276 75.8861 111.396 76.8735 110.679 77.9764C110.081 78.9061 109.586 79.9071 108.774 80.6416C107.963 81.3761 106.693 81.7604 105.761 81.184C105.243 80.874 104.912 80.3007 104.404 79.9598C103.249 79.1881 101.484 79.7522 100.468 78.8008C99.7336 78.1128 99.7213 76.8979 99.0182 76.1789C98.1293 75.2709 96.5405 75.5746 95.5463 76.3587C94.5521 77.1427 93.8894 78.2832 92.9757 79.1633C90.6064 81.4474 86.9797 81.6426 83.6843 81.7046C83.6843 80.9701 84.1427 80.3317 84.4648 79.6747C85.3785 77.8152 85.1276 75.5684 84.2883 73.681C83.4489 71.7937 82.0862 70.2163 80.7514 68.6667C79.2462 70.272 79.9368 73.0705 78.5834 74.8153C78.0352 75.525 77.2052 75.9744 76.6322 76.6748C75.9167 77.5363 75.3593 78.8875 74.2443 78.8038C73.6992 78.7636 73.2594 78.3545 72.8908 77.9516C71.4693 76.402 70.1592 74.4434 68.0934 74.0405C67.2851 73.8825 66.4488 73.991 65.6157 73.9197C64.2815 73.7604 63.045 73.139 62.1207 72.1631C61.1964 71.1873 60.6424 69.9185 60.555 68.5768C58.8082 69.051 56.9376 69.457 55.1908 69.9311C54.7045 70.0644 54.1749 70.1977 53.7042 70.0148C53.0847 69.77 52.775 69.0696 52.264 68.6388C51.5114 68.019 50.4057 68.0438 49.458 68.2483C48.5103 68.4529 47.5471 68.8 46.5746 68.6915C46.3736 67.8044 46.3233 66.8898 46.4259 65.986L42.9571 65.6761C42.5 65.662 42.0482 65.5741 41.6192 65.4157C41.2951 65.2654 40.9963 65.0657 40.7334 64.8238C39.8788 64.0009 39.1624 63.0455 38.6119 61.9943Z" fill="#6C63FF"/>
<path d="M47.1568 59.7847C47.5842 59.3415 47.9497 58.8271 48.4607 58.4862C48.9131 58.2181 49.3982 58.0097 49.904 57.8663C53.6205 56.5554 56.5225 53.6919 59.4896 51.101C62.1036 48.817 64.8507 46.691 67.5948 44.5681L68.6385 45.3305L66.1329 46.3532C65.8913 46.4524 65.6126 46.6011 65.6002 46.8614C65.6113 47.0272 65.6816 47.1834 65.7984 47.3015C66.4426 48.1321 67.1674 49.0184 68.1925 49.2509C68.6819 49.3624 69.2734 49.3469 69.5769 49.7467C69.6979 49.9447 69.7819 50.1632 69.8247 50.3913C70.2211 51.7425 71.4445 52.6692 72.6462 53.4036C75.0199 54.8491 77.5933 55.9372 80.2837 56.6329C78.2499 56.571 76.2413 56.1645 74.3434 55.4304C73.7766 55.2235 73.2336 54.9565 72.7236 54.634C71.6427 53.9274 70.8313 52.8768 69.7813 52.1268C68.7314 51.3768 67.2324 50.977 66.1763 51.7177C65.8882 51.9223 65.6095 52.2136 65.2471 52.195C64.8848 52.1764 64.6277 51.8293 64.318 51.6155C63.5282 51.0514 62.4257 51.4264 61.5801 51.9037C59.0514 53.3443 57.0272 55.5289 55.7823 58.1608C59.5629 58.4129 63.3119 57.3281 66.3745 55.0958C68.2024 57.6564 70.8574 59.5075 73.8912 60.3363C73.4452 60.8787 72.7112 61.0553 72.0577 61.3094C71.1668 61.6631 70.3619 62.2034 69.6968 62.894C69.0318 63.5846 68.522 64.4095 68.2018 65.3135C67.6963 64.6288 67.332 63.8502 67.1302 63.0232C66.1254 63.5875 65.1534 64.2083 64.2189 64.8827C65.1078 64.3096 65.8384 63.5221 66.3435 62.5925C64.7363 62.201 63.0429 62.3829 61.5554 63.1069C60.4714 63.64 59.4679 64.4705 58.26 64.5356C58.339 63.8859 58.1872 63.229 57.8311 62.68C57.4749 62.1311 56.9372 61.7249 56.3119 61.5326C55.4602 61.2939 54.3607 61.3931 53.9024 60.6338C53.7978 60.4162 53.7058 60.1926 53.6267 59.9644C53.2737 59.1742 52.3383 58.7775 51.4742 58.8023C50.6101 58.8271 49.7956 59.1804 48.9965 59.5306C47.8568 60.0326 46.7263 60.5843 45.568 61.0367C46.0914 60.5905 46.6768 60.2681 47.1568 59.7847Z" fill="white"/>
<path d="M67.0683 70.6532C68.6065 70.833 70.1646 70.5853 71.5715 69.9373C72.3396 69.5809 73.0736 69.1037 73.9067 68.9611C74.7398 68.8186 75.7464 69.1502 76.022 69.9528C77.0224 69.2338 77.2051 67.8052 78.0073 66.8692C79.1873 65.4901 81.4761 65.5769 82.9627 66.6213C84.4493 67.6657 85.2793 69.4105 85.8988 71.1026C86.3664 72.3918 86.7846 73.7709 87.757 74.7285C88.7295 75.6862 90.5166 75.9961 91.424 74.9672C90.8205 74.1605 90.4547 73.2008 90.3682 72.1968C90.2817 71.1928 90.478 70.1846 90.9347 69.2865C91.1453 68.8867 91.4148 68.4839 91.3993 68.0469C91.3652 67.0738 90.1604 66.6895 89.3861 66.0944C87.7106 64.8114 87.9305 62.1338 86.5739 60.5161C85.8554 59.6576 84.6382 58.9014 84.8458 57.8013C88.971 58.6208 92.8822 60.2858 96.333 62.6916C96.891 63.1226 97.4957 63.4896 98.1355 63.7856C98.9903 64.1296 99.9349 64.1699 100.805 64.4674C103.701 65.4529 105.377 69.0789 108.424 69.3299C109.942 69.4539 111.363 68.6729 112.782 68.112C118.812 65.7288 125.616 67.2318 131.851 69.0138C129.683 67.8206 126.62 67.9973 125.245 65.9395C124.774 65.236 124.566 64.3311 123.913 63.7918C122.631 62.7319 120.757 63.7515 119.1 63.9096C118.31 63.9748 117.518 63.832 116.8 63.4954C116.083 63.1589 115.467 62.6403 115.012 61.9912C114.566 61.3373 114.284 60.5564 113.699 60.0295C112.841 59.2609 111.574 59.2299 110.422 59.2423L105.017 59.2919C104.11 59.2919 103.088 59.2578 102.481 58.5822C102.282 58.2891 102.063 58.0105 101.824 57.7486C101.468 57.4387 100.972 57.3984 100.511 57.3333C99.0039 57.1231 97.5474 56.6412 96.2122 55.9108C95.9492 55.7995 95.731 55.603 95.5928 55.353C95.2459 54.5317 96.5033 54.0761 97.2064 53.5276C98.3523 52.6289 98.0983 50.8593 97.7329 49.4523C98.6832 49.2484 99.5575 48.7825 100.257 48.1073C98.9563 46.9079 97.5285 45.2716 98.0891 43.595C98.2129 43.2262 98.2811 42.6281 97.8939 42.6374C97.3733 43.7691 96.5053 44.705 95.4162 45.3088C95.0686 45.4509 94.7619 45.6779 94.5243 45.9689C94.1309 46.5887 94.5398 47.5339 94.0504 48.0856C93.8735 48.2611 93.6551 48.3891 93.4155 48.4575C91.7833 49.0432 89.7733 49.1641 88.7915 50.5959C88.4603 51.1786 88.2112 51.8043 88.0513 52.4553C87.4869 54.078 86.5246 55.5329 85.2524 56.6867C83.9803 57.8406 82.439 58.6564 80.7699 59.0595C80.2063 59.1897 79.5899 59.2919 79.1935 59.7134C78.8838 60.0233 78.7785 60.4665 78.5214 60.8136C78.0073 61.5109 77.0751 61.6999 76.2667 62.0098C73.9532 62.8931 72.5316 64.9137 71.2401 66.9126C70.695 67.7556 70.2955 68.0097 69.4004 68.4033C68.8545 68.6101 68.353 68.9193 67.9231 69.3144C67.8394 69.4074 66.997 70.6439 67.0683 70.6532Z" fill="white"/>
<path d="M107.96 53.3882C106.936 53.9219 105.856 54.3378 104.739 54.6278C105.27 54.7798 105.78 54.9996 106.256 55.2817C106.096 55.9243 105.72 56.4922 105.191 56.8901C106.43 56.9304 107.603 57.386 108.796 57.7114C110.775 58.2475 112.822 58.4242 114.872 58.6008L112.085 56.5647C111.676 56.2548 111.236 55.9263 111.134 55.4305C111.093 54.972 111.212 54.5136 111.469 54.1319C112.175 52.7962 113.033 51.5752 113.844 50.3108C112.847 50.6548 111.537 50.3696 110.639 50.788C110.078 51.0483 109.979 51.6 109.644 52.0617C109.193 52.6285 108.616 53.0826 107.96 53.3882Z" fill="white"/>
<path d="M124.827 56.5058C124.535 57.2226 124.115 57.8801 123.588 58.4459C124.084 58.8996 124.704 59.1961 125.369 59.2981C125.709 59.3262 126.047 59.3749 126.381 59.4438C126.769 59.5759 127.132 59.7718 127.456 60.0233C129.624 61.5264 131.956 63.2588 132.56 65.8279C132.952 65.6083 133.411 65.5416 133.849 65.6406C134.287 65.7396 134.673 65.9973 134.933 66.3641C135.199 66.77 135.335 67.3217 135.778 67.52C136.221 67.7184 136.707 67.458 137.057 67.1574C137.407 66.8568 137.754 66.488 138.209 66.3827C138.493 66.3362 138.784 66.3457 139.064 66.4106L143.186 67.0769C142.615 66.4996 141.922 66.0573 141.158 65.7822C140.394 65.5072 139.578 65.4063 138.77 65.487C137.773 65.5955 136.732 65.9736 135.806 65.5955C134.88 65.2174 134.403 64.2195 133.672 63.5439C132.743 62.6823 131.402 62.3538 130.476 61.483C129.705 60.7516 129.296 59.7165 128.596 58.9169C127.837 58.0461 126.756 57.4821 126.09 56.5399C125.821 56.1587 125.607 55.7094 125.211 55.4676C124.514 55.0462 123.083 55.0834 122.29 55.009C122.479 55.9418 123.935 56.6763 124.827 56.5058Z" fill="white"/>
<path d="M53.2055 48.5226C53.9054 48.5706 54.6073 48.583 55.3085 48.5597C55.3766 48.5624 55.444 48.5464 55.5036 48.5133C55.5646 48.4551 55.603 48.3771 55.612 48.2932L55.8629 47.1837C55.8735 47.0854 55.9172 46.9937 55.9868 46.9234C56.0512 46.8876 56.1237 46.8688 56.1974 46.8688C56.2711 46.8688 56.3435 46.8876 56.408 46.9234C57.1319 47.1952 57.8115 47.5733 58.4242 48.0453C58.1599 47.2457 57.9245 46.4369 57.7181 45.6187L59.6166 45.284C58.1764 44.94 57.4486 45.1135 56.5195 46.1331C55.9744 46.7189 54.0418 48.5752 53.2055 48.5226Z" fill="white"/>
<path d="M91.3405 27.4239C92.2932 27.4239 93.0655 26.6511 93.0655 25.6977C93.0655 24.7444 92.2932 23.9715 91.3405 23.9715C90.3877 23.9715 89.6154 24.7444 89.6154 25.6977C89.6154 26.6511 90.3877 27.4239 91.3405 27.4239Z" fill="#565661"/>
<path d="M80.2837 34.2202L91.3404 25.6977L102.512 34.2202" stroke="#565661" stroke-miterlimit="10"/>
<path d="M93.1089 57.0823L93.2452 57.169L93.5301 57.1381L93.1089 57.0823Z" fill="url(#paint0_linear)"/>
<path d="M93.5456 57.1381L95.9335 57.448C95.1697 57.1711 94.3546 57.0654 93.5456 57.1381Z" fill="url(#paint1_linear)"/>
<path d="M187.509 142.943H99.7275V163.282H187.509V142.943Z" fill="#565661"/>
<path opacity="0.1" d="M187.509 142.943H99.7275V163.282H187.509V142.943Z" fill="black"/>
<path d="M110.23 163.952L110.846 218.251L102.403 239.579L101.75 163.952H110.23Z" fill="#BCBEC9"/>
<path d="M100.654 146.848L186.119 147.362V162.51H100.654V146.848Z" fill="#565661"/>
<path d="M178.806 163.952L186.119 164.984V238.754L178.806 216.19V163.952Z" fill="#BCBEC9"/>
<path d="M230.085 143.758H188.897V231.338H230.085V143.758Z" fill="#EFEFF0"/>
<path d="M226.79 146.191H192.192V213.512H226.79V146.191Z" fill="#565661"/>
<path opacity="0.1" d="M226.79 146.191H192.192V213.512H226.79V146.191Z" fill="black"/>
<path d="M226.79 147.57H192.192V162.51H226.79V147.57Z" fill="#565661"/>
<path d="M226.79 163.952H192.192V195.686H226.79V163.952Z" fill="#565661"/>
<path d="M226.79 197.645H192.192V229.38H226.79V197.645Z" fill="#565661"/>
<path d="M193.635 237.041C194.867 237.041 195.865 235.764 195.865 234.189C195.865 232.615 194.867 231.338 193.635 231.338C192.404 231.338 191.405 232.615 191.405 234.189C191.405 235.764 192.404 237.041 193.635 237.041Z" fill="#565661"/>
<path d="M224.56 237.177C225.792 237.177 226.79 235.901 226.79 234.326C226.79 232.751 225.792 231.475 224.56 231.475C223.329 231.475 222.33 232.751 222.33 234.326C222.33 235.901 223.329 237.177 224.56 237.177Z" fill="#565661"/>
<path d="M99.4177 239.579H102.403L101.583 144.517H97.0484L99.4177 239.579Z" fill="#EFEFF0"/>
<path d="M186.119 143.758V238.754H188.897V144.517L186.119 143.758Z" fill="#EFEFF0"/>
<path d="M101.728 161.581V164.984H186.119V162.51L101.728 161.581Z" fill="#EFEFF0"/>
<path d="M107.449 137.371H214.436L229.983 142.521V145.509L96.5343 144.48V141.44L107.449 137.371Z" fill="#EFEFF0"/>
<path d="M96.5343 141.44L229.983 142.521V145.509L96.5343 144.48V141.44Z" fill="#BCBEC9"/>
<path d="M131.851 169.121L131.231 169.028C131.231 169 131.231 168.975 131.231 168.95C131.213 168.805 131.191 168.662 131.169 168.517C131.423 168.718 131.665 168.919 131.888 169.121H131.851Z" fill="url(#paint2_linear)"/>
<path d="M118.391 216.974C118.793 216.881 119.202 216.804 119.611 216.748C122.419 216.348 125.282 216.77 127.856 217.963C127.595 219.878 127.338 221.858 127.89 223.708C128.274 225.01 129.045 226.188 129.209 227.545C129.623 227.616 130.008 227.801 130.323 228.079C130.637 228.357 130.868 228.717 130.99 229.119C131.109 229.475 131.168 229.848 131.166 230.223C131.163 230.687 131.105 231.148 130.993 231.599C130.955 231.958 130.779 232.289 130.501 232.521C130.224 232.752 129.867 232.866 129.506 232.838C127.109 233.111 124.758 232.166 122.528 231.239L118.193 229.435C117.685 229.225 117.174 229.011 116.687 228.751C115.765 228.252 114.946 227.582 114.275 226.776C114.136 226.635 114.039 226.458 113.993 226.265C113.912 225.72 114.55 225.394 114.956 225.025C115.075 224.913 115.179 224.786 115.266 224.647C115.746 223.922 115.792 222.921 116.08 222.066C116.762 220.036 118.868 218.728 119.611 216.748C119.651 216.639 119.688 216.531 119.719 216.419" fill="#A26565"/>
<path opacity="0.1" d="M131.166 230.223C131.163 230.687 131.105 231.148 130.993 231.599C130.955 231.958 130.779 232.289 130.501 232.521C130.224 232.752 129.867 232.866 129.506 232.838C127.109 233.111 124.758 232.166 122.528 231.239L118.193 229.435C117.685 229.225 117.174 229.011 116.687 228.751C115.765 228.252 114.946 227.582 114.275 226.776C114.136 226.635 114.039 226.458 113.993 226.265C113.912 225.72 114.55 225.394 114.956 225.025C115.075 224.913 115.179 224.786 115.266 224.647C116.461 224.905 117.945 225.658 118.858 225.949C119.774 226.198 120.652 226.566 121.472 227.043C122.612 227.774 123.433 228.902 124.399 229.832C125.365 230.762 126.614 231.608 127.961 231.493C128.673 231.386 129.36 231.148 129.986 230.793L131.166 230.223Z" fill="black"/>
<path d="M126.09 186.181C126.171 186.463 126.163 186.762 126.069 187.039C125.975 187.316 125.799 187.557 125.564 187.731C125.158 187.982 124.635 187.948 124.232 188.221C123.733 188.571 123.662 189.265 123.575 189.866C123.266 191.933 122.24 193.808 121.364 195.708C120.487 197.608 119.747 199.681 120.069 201.745C120.289 203.146 120.977 204.64 120.333 205.901C120.175 206.211 119.939 206.487 119.76 206.787C118.877 208.262 119.379 210.131 119.345 211.848C119.358 212.039 119.316 212.229 119.224 212.397C119.088 212.555 118.922 212.684 118.735 212.775C118.42 213.006 118.162 213.305 117.979 213.65C117.796 213.995 117.693 214.377 117.678 214.767C117.652 215.548 117.746 216.328 117.957 217.079C117.991 217.383 118.125 217.666 118.338 217.885C118.585 218.048 118.876 218.131 119.171 218.121C121.117 218.278 123.026 218.743 124.827 219.497C126 219.986 127.14 220.6 128.388 220.835C128.509 220.873 128.636 220.885 128.762 220.872C128.887 220.859 129.009 220.82 129.119 220.758C129.276 220.616 129.384 220.429 129.429 220.222C129.909 218.641 130.395 217.011 130.231 215.369C130.16 214.662 129.971 213.971 129.921 213.264C129.705 210.475 131.591 207.959 132.188 205.207C132.458 203.967 132.458 202.684 132.65 201.432C133.17 198.001 135.059 194.924 135.787 191.53C135.889 190.898 136.046 190.276 136.258 189.671C136.8 188.357 138.054 187.291 138.082 185.868C138.099 185.555 138.017 185.245 137.847 184.982C137.555 184.661 137.167 184.444 136.741 184.362C135.05 183.9 133.329 183.556 131.591 183.333C130.798 183.177 129.988 183.121 129.181 183.166C128.133 183.289 127.126 183.645 126.233 184.207C125.062 184.939 125.83 185.115 126.09 186.181Z" fill="#454B69"/>
<path opacity="0.05" d="M126.09 186.181C126.171 186.463 126.163 186.762 126.069 187.039C125.975 187.316 125.799 187.557 125.564 187.731C125.158 187.982 124.635 187.948 124.232 188.221C123.733 188.571 123.662 189.265 123.575 189.866C123.266 191.933 122.24 193.808 121.364 195.708C120.487 197.608 119.747 199.681 120.069 201.745C120.289 203.146 120.977 204.64 120.333 205.901C120.175 206.211 119.939 206.487 119.76 206.787C118.877 208.262 119.379 210.131 119.345 211.848C119.358 212.039 119.316 212.229 119.224 212.397C119.088 212.555 118.922 212.684 118.735 212.775C118.42 213.006 118.162 213.305 117.979 213.65C117.796 213.995 117.693 214.377 117.678 214.767C117.652 215.548 117.746 216.328 117.957 217.079C117.991 217.383 118.125 217.666 118.338 217.885C118.585 218.048 118.876 218.131 119.171 218.121C121.117 218.278 123.026 218.743 124.827 219.497C126 219.986 127.14 220.6 128.388 220.835C128.509 220.873 128.636 220.885 128.762 220.872C128.887 220.859 129.009 220.82 129.119 220.758C129.276 220.616 129.384 220.429 129.429 220.222C129.909 218.641 130.395 217.011 130.231 215.369C130.16 214.662 129.971 213.971 129.921 213.264C129.705 210.475 131.591 207.959 132.188 205.207C132.458 203.967 132.458 202.684 132.65 201.432C133.17 198.001 135.059 194.924 135.787 191.53C135.889 190.898 136.046 190.276 136.258 189.671C136.8 188.357 138.054 187.291 138.082 185.868C138.099 185.555 138.017 185.245 137.847 184.982C137.555 184.661 137.167 184.444 136.741 184.362C135.05 183.9 133.329 183.556 131.591 183.333C130.798 183.177 129.988 183.121 129.181 183.166C128.133 183.289 127.126 183.645 126.233 184.207C125.062 184.939 125.83 185.115 126.09 186.181Z" fill="black"/>
<path d="M120.029 232.888H117.387L115.659 197.36L115.538 195.339L117.784 194.549L117.935 196.697L120.029 232.888Z" fill="#565661"/>
<path opacity="0.1" d="M117.935 196.697L115.659 197.36L115.538 195.339L117.784 194.549L117.935 196.697Z" fill="black"/>
<path d="M153.178 240.403L148.82 240.93L128.744 195.339L123.331 194.943L113.822 197.719L111.973 252H107.616L109.332 195.736L98.8974 196.002L80.2775 242.383H76.3163L95.8994 188.177L96.6551 186.088L125.839 185.087L133.114 189.169L133.207 189.404L153.178 240.403Z" fill="#565661"/>
<path opacity="0.1" d="M133.207 189.404C126.936 191.295 120.426 193.359 120.426 193.359C120.426 193.359 114.488 195.432 111.974 193.359C111.656 193.111 111.302 192.916 110.924 192.779C111.25 193.013 111.602 193.207 111.974 193.359L95.8994 188.174L96.652 186.088L125.839 185.087L133.114 189.169L133.207 189.404Z" fill="black"/>
<path d="M103.521 180.408L115.405 177.755C115.405 177.755 143.8 183.042 145.912 185.156C145.912 185.156 123.197 189.779 120.689 191.354C118.18 192.928 103.255 194.679 103.521 180.408Z" fill="white"/>
<path d="M98.4112 150.691C97.482 153.638 94.9455 156.294 91.8577 156.421C91.633 156.447 91.4055 156.406 91.2042 156.303C90.817 156.061 90.8077 155.494 90.9657 155.063C91.1236 154.633 91.3993 154.245 91.4426 153.793C91.4519 153.7 91.4456 153.607 91.4241 153.517C91.3435 153.148 91.0431 152.82 90.69 152.897C90.9304 152.705 91.0906 152.429 91.1393 152.125C91.1879 151.821 91.1216 151.509 90.9533 151.251C90.8131 151.093 90.6867 150.923 90.5754 150.743C90.3184 150.216 90.7179 149.624 90.8852 149.06C91.2289 147.821 90.3555 146.581 90.2843 145.289C90.2224 144.133 90.8077 143.045 90.9533 141.898C91.1856 140.039 90.2626 138.257 90.1542 136.401C90.0799 135.105 90.3989 133.822 90.7551 132.573C91.0648 131.458 91.4148 130.329 91.4364 129.164C91.4364 128.318 91.2909 127.481 91.2506 126.638C91.1864 125.868 91.3263 125.094 91.6563 124.395C91.8708 123.984 92.2359 123.671 92.6753 123.524C93.6912 123.183 94.357 123.713 94.5057 124.677C94.7535 126.316 94.611 127.99 94.9362 129.635C95.2369 131.174 95.6924 132.679 96.2958 134.126C96.844 135.434 97.5099 136.698 97.9311 138.052C98.2482 139.169 98.4751 140.309 98.6094 141.461C99.0244 144.557 99.3496 147.743 98.4112 150.691Z" fill="#6C63FF"/>
<path d="M168.951 225.701C168.56 226.254 168.055 226.717 167.472 227.061C166.889 227.405 166.239 227.622 165.566 227.697C164.222 227.864 162.825 227.526 161.521 227.895C161.319 227.928 161.129 228.011 160.967 228.136C160.805 228.261 160.676 228.424 160.592 228.611C160.56 228.863 160.54 229.116 160.533 229.37C160.382 230.198 159.294 230.384 158.449 230.378L154.962 230.356C154.237 230.356 153.435 230.316 152.914 229.814C152.667 229.539 152.527 229.185 152.522 228.815C152.516 228.446 152.645 228.087 152.883 227.805C153.056 227.746 153.198 227.621 153.278 227.457C153.358 227.293 153.37 227.104 153.311 226.931C153.252 226.759 153.126 226.617 152.963 226.537C152.799 226.456 152.61 226.445 152.437 226.504C152.374 226.048 152.396 225.585 152.502 225.137C152.502 223.842 152.812 221.672 153.723 220.659C154.841 219.397 156.78 217.767 158.468 217.43C159.038 217.321 159.626 217.349 160.185 217.509C160.743 217.669 161.256 217.958 161.682 218.353C162.481 219.097 163.064 220.262 164.16 220.392C164.758 220.467 165.334 220.185 165.925 220.082C166.598 219.996 167.28 220.119 167.88 220.436C168.479 220.753 168.966 221.247 169.273 221.852C169.423 222.158 169.528 222.485 169.583 222.822C169.744 223.827 169.518 224.856 168.951 225.701Z" fill="#A26565"/>
<path opacity="0.1" d="M168.951 225.701C168.559 226.254 168.055 226.717 167.472 227.061C166.889 227.405 166.239 227.622 165.566 227.697C164.222 227.864 162.825 227.526 161.521 227.895C161.319 227.928 161.129 228.011 160.967 228.136C160.805 228.261 160.676 228.424 160.592 228.611C160.56 228.863 160.54 229.116 160.533 229.37C160.382 230.198 159.294 230.384 158.449 230.378L154.962 230.356C154.237 230.356 153.435 230.316 152.914 229.814C152.667 229.539 152.527 229.185 152.522 228.815C152.516 228.446 152.645 228.087 152.883 227.805C154.897 227.722 156.876 227.805 158.883 227.39C159.697 227.226 160.499 227.009 161.323 226.894C163.107 226.64 165.006 226.857 166.644 226.101C168.01 225.481 168.988 224.22 169.568 222.813C169.735 223.819 169.515 224.851 168.951 225.701Z" fill="black"/>
<path d="M159.75 220.801C158.511 221.762 157.058 222.512 155.497 222.593C153.936 222.673 152.28 221.973 151.515 220.615C150.396 218.623 151.388 215.852 150.019 214.024C149.591 213.45 148.975 213.044 148.523 212.49C148.071 211.935 147.81 211.101 148.213 210.512C147.727 210.698 147.213 210.227 147.07 209.725C146.928 209.223 147.017 208.684 146.931 208.176C146.705 206.828 145.382 205.963 144.747 204.767C144.112 203.57 144.199 202.018 144.128 200.601C143.97 197.151 142.686 193.847 140.473 191.196C140.052 190.694 139.513 190.182 138.857 190.207C138.971 189.073 138.215 187.988 137.237 187.418C136.258 186.848 135.094 186.656 133.96 186.544C122.522 185.416 110.605 189.671 99.6841 186.091C96.6458 185.097 93.7159 183.432 91.8577 180.823C91.1338 179.83 90.6159 178.702 90.3346 177.505C90.0532 176.309 90.014 175.068 90.2193 173.856V173.813C90.6498 171.613 91.8112 171.07 93.7345 170.066C95.9549 168.891 98.2756 167.918 100.669 167.156C105.315 165.703 110.317 165.179 115.111 166.245C117.35 166.747 119.509 167.577 121.751 168.064C122.634 168.256 123.523 168.393 124.418 168.507C125.808 168.681 127.205 168.795 128.605 168.957C133.081 169.472 137.49 170.464 141.755 171.916C143.344 172.455 144.933 173.072 146.299 174.048C147.382 174.834 148.297 175.828 148.992 176.972C149.686 178.116 150.146 179.388 150.344 180.711C150.474 181.623 150.477 182.571 150.675 183.454C150.863 184.196 151.112 184.922 151.419 185.624C154.065 192.171 156.227 198.904 157.888 205.768C157.983 206.278 158.157 206.769 158.406 207.224C158.802 207.866 159.483 208.297 159.883 208.938C160.812 210.45 159.917 212.561 160.741 214.135C161.026 214.681 161.5 215.111 161.785 215.657C162.708 217.423 161.336 219.571 159.75 220.801Z" fill="#454B69"/>
<path opacity="0.1" d="M143.923 185.193C144.364 184.844 144.744 184.425 145.048 183.953C145.353 183.479 145.474 182.909 145.388 182.351C145.509 183.056 145.463 183.781 145.254 184.465C145.045 185.15 144.678 185.776 144.184 186.293C143.406 187.089 141.947 187.87 140.811 187.598C140.972 186.687 143.202 185.813 143.923 185.193Z" fill="black"/>
<path opacity="0.1" d="M124.573 169.747C124.479 170.079 124.304 170.383 124.064 170.63C123.824 170.878 123.526 171.062 123.197 171.166C122.537 171.368 121.846 171.449 121.156 171.405H120.537C112.41 171.225 104.197 169.421 96.2587 171.141C95.302 171.339 94.3634 171.616 93.4527 171.969C92.2924 172.427 91.2059 173.053 90.2286 173.828V173.785C90.6591 171.585 91.8205 171.042 93.7438 170.038C95.9621 168.874 98.2797 167.909 100.669 167.156C105.315 165.703 110.317 165.179 115.111 166.245C117.35 166.747 119.509 167.577 121.751 168.064C122.634 168.256 123.523 168.393 124.418 168.507C124.591 168.896 124.645 169.327 124.573 169.747Z" fill="black"/>
<path d="M124.573 169.304C124.48 169.637 124.305 169.941 124.065 170.189C123.825 170.438 123.527 170.622 123.197 170.726C122.537 170.929 121.845 171.008 121.156 170.962H120.537C112.41 170.782 104.197 168.978 96.2587 170.698C95.3024 170.896 94.364 171.172 93.4527 171.523C92.2376 172.007 91.1042 172.676 90.0923 173.506C89.8549 172.853 89.6184 172.199 89.3831 171.544C89.0981 170.763 90.0025 170.59 90.1759 169.889C90.2905 169.415 90.0954 168.876 89.9963 168.371C89.9709 168.247 89.9543 168.122 89.9467 167.996C89.891 166.877 90.2905 166.232 91.2073 165.628C93.9265 163.831 97.2436 162.597 100.347 161.671C101.997 161.149 103.701 160.818 105.426 160.685C107.867 160.543 110.304 160.995 112.68 161.568C115.6 162.29 118.49 163.245 121.079 164.773C122.352 165.523 123.588 166.456 124.266 167.773C124.539 168.233 124.647 168.773 124.573 169.304Z" fill="#A26565"/>
<path opacity="0.1" d="M98.4112 150.691C97.4821 153.638 94.9455 156.294 91.8577 156.421C91.633 156.447 91.4055 156.406 91.2042 156.303C90.817 156.061 90.8077 155.494 90.9657 155.063C91.1236 154.633 91.3993 154.245 91.4426 153.793C91.4519 153.7 91.4456 153.607 91.4241 153.517C93.0624 151.205 94.6513 148.868 95.28 146.132C95.4073 145.661 95.4461 145.17 95.3946 144.684C95.311 144.127 95.0291 143.621 94.8743 143.082C94.6017 142.128 94.7287 141.117 94.8061 140.129C95.1311 135.77 94.4046 131.398 92.6877 127.379C92.2696 126.412 91.7926 125.433 91.6471 124.401C91.8615 123.99 92.2267 123.678 92.666 123.53C93.6819 123.189 94.3478 123.719 94.4964 124.683C94.7442 126.322 94.6017 127.996 94.9269 129.641C95.2276 131.18 95.6831 132.685 96.2866 134.132C96.8348 135.44 97.5006 136.704 97.9219 138.059C98.239 139.175 98.4658 140.315 98.6001 141.468C99.0244 144.557 99.3496 147.743 98.4112 150.691Z" fill="black"/>
<path opacity="0.1" d="M124.573 169.304C124.48 169.637 124.305 169.941 124.065 170.189C123.825 170.438 123.527 170.622 123.197 170.726C122.537 170.929 121.845 171.008 121.156 170.962H120.537C117.892 169.204 114.711 168.435 111.555 168.792C110.546 168.913 109.536 169.149 108.526 169.056C106.485 168.87 104.832 167.401 103.014 166.462C100.945 165.44 98.618 165.059 96.3317 165.37C94.0454 165.68 91.904 166.667 90.1821 168.203L90.0056 168.358C89.9802 168.235 89.9636 168.109 89.956 167.983C89.9003 166.865 90.2998 166.22 91.2166 165.616C93.9358 163.818 97.2529 162.585 100.356 161.658C102.006 161.136 103.71 160.806 105.435 160.673C107.876 160.53 110.313 160.983 112.689 161.556C115.61 162.278 118.499 163.233 121.088 164.76C122.361 165.51 123.597 166.443 124.275 167.76C124.548 168.226 124.653 168.77 124.573 169.304Z" fill="black"/>
<path d="M131.519 135.356L131.476 135.468C130.782 137.268 129.506 138.79 128.689 140.544C127.657 142.766 127.403 145.258 127.174 147.7C126.976 149.792 126.781 151.896 126.939 153.994C127.335 159.163 129.859 164.066 130.535 169.136C130.701 170.307 130.743 171.493 130.662 172.672C130.606 173.419 130.47 174.222 129.974 174.774C129.478 175.325 128.515 175.542 127.983 175.012C128.221 174.557 128.463 174.104 128.704 173.649C127.289 172.548 125.158 173.339 123.504 172.651C122.776 172.341 122.194 171.783 121.584 171.284C120.191 170.151 118.587 169.308 116.864 168.805C115.141 168.301 113.335 168.147 111.552 168.352C110.543 168.476 109.533 168.712 108.523 168.619C106.482 168.43 104.828 166.964 103.01 166.025C100.942 165.003 98.6153 164.623 96.3293 164.933C94.0432 165.242 91.9016 166.228 90.179 167.763C89.7454 168.166 89.1632 168.637 88.6305 168.383C88.4246 168.257 88.2582 168.076 88.1504 167.86C86.1218 164.392 87.6146 159.92 89.7826 156.542C91.9506 153.164 94.8216 150.049 95.7136 146.144C95.8424 145.673 95.8812 145.182 95.8282 144.697C95.7445 144.139 95.4627 143.634 95.3079 143.095C95.0353 142.14 95.1623 141.13 95.2397 140.141C95.5647 135.783 94.8382 131.41 93.1213 127.392C92.6257 126.236 92.0373 125.064 92.0373 123.809C92.0373 121.832 93.4527 120.192 94.6234 118.602C95.9706 116.774 97.1011 114.75 98.8076 113.247C100.424 111.819 102.766 110.945 104.766 111.67C108.167 110.847 111.666 110.509 115.16 110.666C116.368 110.721 117.616 110.849 118.676 111.434C119.809 112.054 120.624 113.157 121.739 113.817C122.553 114.304 123.492 114.533 124.377 114.874C126.825 115.832 128.844 117.643 130.064 119.972C131.303 122.374 131.612 125.135 131.885 127.825C132.151 130.339 132.399 132.973 131.519 135.356Z" fill="#6C63FF"/>
<path opacity="0.1" d="M126.939 153.994C127.335 159.163 129.859 164.066 130.535 169.136C129.184 167.983 127.31 166.843 127.053 165.514C126.775 164.076 125.883 162.191 125.734 160.738C125.585 159.284 126.604 157.509 125.536 156.511C125.016 156.024 126.4 156.16 125.892 155.661C124.749 154.549 124.467 152.835 124.396 151.245C124.275 148.431 124.631 145.586 124.114 142.819C123.805 141.111 123.157 139.484 122.64 137.826C122.039 135.895 121.606 133.918 121.172 131.938C120.745 130.177 120.435 128.39 120.243 126.589C120.11 125.039 120.172 123.397 120.862 121.984C121.553 120.57 122.95 119.424 124.517 119.445C129.757 119.514 128.853 126.623 130.005 129.908C130.466 131.216 131.089 132.48 131.34 133.844C131.431 134.378 131.481 134.919 131.488 135.462C130.795 137.262 129.519 138.784 128.701 140.538C127.67 142.76 127.416 145.252 127.187 147.694C126.976 149.792 126.781 151.896 126.939 153.994Z" fill="black"/>
<path d="M130.346 129.827C130.807 131.135 131.43 132.4 131.681 133.763C132.099 136.047 131.451 138.474 132.154 140.687C132.337 141.159 132.49 141.642 132.613 142.134C132.734 142.837 132.594 143.556 132.594 144.272C132.594 145.425 132.957 146.541 133.279 147.647C134.368 151.406 135.089 155.262 135.431 159.16C135.482 160.208 135.647 161.247 135.924 162.259C136.054 162.602 136.165 162.952 136.258 163.307C136.341 163.781 136.361 164.263 136.317 164.742C136.233 166.26 136.063 167.785 136.233 169.298C136.404 170.81 136.955 172.344 138.092 173.357C137.076 173.577 136.001 173.797 135.01 173.472C133.616 173.016 132.78 171.613 132.071 170.336C131.173 168.706 127.76 167.237 127.406 165.405C127.131 163.97 126.239 162.086 126.09 160.629C125.942 159.173 126.957 157.403 125.889 156.405C125.372 155.919 126.756 156.052 126.245 155.556C125.105 154.444 124.823 152.73 124.752 151.137C124.631 148.326 124.985 145.481 124.47 142.713C124.161 141.006 123.513 139.379 122.996 137.718C122.395 135.79 121.962 133.813 121.528 131.829C121.1 130.069 120.79 128.282 120.599 126.48C120.466 124.931 120.525 123.285 121.218 121.872C121.912 120.459 123.309 119.315 124.873 119.334C130.092 119.43 129.194 126.542 130.346 129.827Z" fill="#6C63FF"/>
<path opacity="0.1" d="M115.411 131.039C115.901 131.612 116.529 132.242 117.27 132.13C117.213 132.219 117.125 132.283 117.022 132.307C116.92 132.331 116.812 132.315 116.721 132.26C116.544 132.142 116.401 131.978 116.309 131.786L115.25 129.998C115.111 129.765 114.151 128.411 113.915 129.192C113.822 129.524 115.173 130.76 115.411 131.039Z" fill="black"/>
<path opacity="0.1" d="M114.841 135.499C114.811 134.914 114.565 134.362 114.151 133.949C113.778 133.611 113.344 133.349 112.872 133.177C111.71 132.7 110.335 132.316 109.075 132.378C109.533 133.047 111.004 133.447 111.741 133.825C112.786 134.364 113.819 134.922 114.841 135.499Z" fill="black"/>
<path opacity="0.1" d="M118.14 148.193C117.926 149.779 116.628 150.982 115.315 151.912C114.002 152.841 112.528 153.641 111.67 154.986C111.075 155.916 110.809 156.994 110.304 157.964C109.747 159.033 108.914 159.932 108.248 160.936C107.582 161.94 107.061 163.14 107.266 164.33C107.269 164.384 107.283 164.438 107.307 164.487C107.332 164.536 107.366 164.58 107.408 164.615C107.472 164.642 107.542 164.652 107.611 164.644C107.68 164.637 107.745 164.612 107.802 164.571C109.152 163.865 109.685 162.25 110.251 160.852C110.846 159.442 111.516 158.064 112.258 156.724C112.593 156.105 112.961 155.429 113.584 155.085C114.01 154.907 114.447 154.755 114.891 154.629C115.521 154.34 116.074 153.906 116.505 153.362C118.195 151.344 119.078 148.77 118.982 146.138C118.964 145.583 118.933 142.912 118.1 143.736C117.266 144.561 118.282 147.114 118.14 148.193Z" fill="black"/>
<path d="M120.181 87.3357C122.844 88.4978 125.136 91.0546 125.053 93.9522C124.981 96.9956 122.436 99.8622 123.312 102.778C123.82 104.471 125.35 105.605 126.561 106.891C131.173 111.775 131.163 120.301 126.536 125.176C124.765 127.035 122.488 128.358 120.614 130.134C114.008 136.363 113.726 147.139 117.263 155.503C114.553 156.09 111.791 156.401 109.019 156.433C107.721 156.449 106.132 156.213 105.662 155.001C105.228 153.883 105.971 152.37 105.116 151.543C104.714 151.155 104.11 151.103 103.568 151.013C100.081 150.449 97.2188 147.663 95.9118 144.381C94.6048 141.099 94.673 137.405 95.4225 133.952C95.9552 131.458 96.7883 128.712 95.5525 126.48C94.004 123.673 89.5503 122.489 89.6184 119.278C89.6742 116.647 92.7744 115.367 94.5336 113.411C97.7794 109.81 96.2339 104.223 96.2277 99.3695C96.2277 95.0989 97.7205 90.692 100.898 87.847C105.624 83.5796 114.727 84.9649 120.181 87.3357Z" fill="#A26565"/>
<g opacity="0.1">
<path opacity="0.1" d="M96.0604 123.298C94.7008 120.843 91.1298 119.628 90.2998 117.214C89.8846 117.777 89.6512 118.454 89.6308 119.154C89.5627 122.365 94.0102 123.549 95.5649 126.36C96.0755 127.355 96.2904 128.475 96.1843 129.589C96.6737 127.432 97.1042 125.182 96.0604 123.298Z" fill="black"/>
<path opacity="0.1" d="M123.668 98.8054C124.226 97.1784 125.034 95.5359 125.074 93.8469C125.08 93.6639 125.075 93.4807 125.059 93.2983C124.436 95.1547 123.482 96.9739 123.668 98.8054Z" fill="black"/>
<path opacity="0.1" d="M96.5932 107.474C97.6586 104.105 96.7387 99.9273 96.7356 96.1898C96.7356 95.7373 96.7542 95.2818 96.7883 94.8293C96.4213 96.2737 96.2361 97.7583 96.237 99.2486C96.2432 101.917 96.7109 104.811 96.5932 107.474Z" fill="black"/>
<path opacity="0.1" d="M127.053 122.005C125.282 123.865 123.005 125.188 121.132 126.964C117.787 130.116 116.068 134.433 115.637 139.01C116.436 135.601 118.05 132.462 120.636 130.023C122.494 128.256 124.786 126.939 126.558 125.064C128.665 122.766 129.889 119.794 130.011 116.678C129.476 118.669 128.461 120.499 127.053 122.005Z" fill="black"/>
<path opacity="0.1" d="M109.536 153.253C108.238 153.253 106.65 153.03 106.179 151.819C105.745 150.703 106.488 149.191 105.634 148.36C105.231 147.973 104.624 147.92 104.085 147.83C100.601 147.269 97.7391 144.48 96.4321 141.201C95.4689 138.778 95.2614 136.134 95.503 133.525C95.4782 133.627 95.4565 133.729 95.4348 133.835C94.6977 137.287 94.6203 140.984 95.9242 144.266C97.2281 147.548 100.093 150.334 103.577 150.895C104.128 150.985 104.736 151.041 105.126 151.425C105.99 152.256 105.237 153.768 105.671 154.884C106.142 156.095 107.73 156.334 109.028 156.318C111.801 156.287 114.563 155.975 117.273 155.389C116.89 154.485 116.557 153.561 116.272 152.621C114.048 153.017 111.795 153.228 109.536 153.253Z" fill="black"/>
</g>
<path opacity="0.1" d="M119.679 139.738C120.444 140.315 121.274 138.117 120.8 137.569C120.673 137.711 119.561 139.658 119.679 139.738Z" fill="black"/>
<path opacity="0.1" d="M122.94 179.512C123.842 179.202 124.799 178.892 125.387 178.149C125.873 177.55 126.273 175.176 125.245 176.314C124.371 177.284 123.959 178.576 122.94 179.512Z" fill="black"/>
<path opacity="0.1" d="M132.117 177.024C132.009 177.755 131.807 178.514 131.29 179.041C131.194 179.14 130.981 179.202 130.953 179.069C131.53 178.761 132.067 178.382 132.551 177.941C133.598 176.903 133.74 174.346 132.145 173.667C132.13 174.789 132.288 175.895 132.117 177.024Z" fill="black"/>
<path d="M143.134 172.415C143.134 172.415 134.344 168.96 131.166 169.316C127.989 169.672 134.765 174.684 134.765 174.684L138.816 177.417C138.816 177.417 141.294 176.487 141.458 176.416C141.622 176.345 143.134 172.415 143.134 172.415Z" fill="#454B69"/>
<path d="M82.6561 135.344C82.6561 135.344 89.2592 131.513 97.9745 136.274C106.69 141.034 108.142 169.046 108.142 169.046C108.142 169.046 104.578 197.589 118.323 191.242C118.323 191.242 143.409 183.448 145.921 185.165C145.921 185.165 148.3 185.165 143.546 186.222C138.792 187.278 120.435 193.092 120.435 193.092C120.435 193.092 114.498 195.169 111.983 193.092C109.468 191.016 102.341 193.359 101.415 179.084C100.803 170.089 99.7004 161.134 98.1139 152.259L95.664 144.991L82.6561 135.344Z" fill="#565661"/>
<path d="M81.8632 179.481C81.8632 179.481 84.7683 150.542 80.005 140.101C75.861 131.002 91.8855 135.257 96.0667 136.497C96.7137 136.69 97.2781 137.094 97.671 137.643C100.149 141.13 109.037 155.104 106.417 173.801C106.417 173.801 105.361 190.452 111.964 193.092L91.6192 186.535C89.9684 186.002 88.2929 185.558 86.6018 185.174C84.4462 184.685 80.9341 183.293 81.8632 179.481Z" fill="white"/>
<path d="M206.547 127.708C206.547 127.708 205.126 134.333 211.453 135.118L211.846 134.383C211.846 134.383 206.941 129.769 206.547 127.708Z" fill="#6C63FF"/>
<path d="M213.857 134.33L212.385 134.64L212.24 134.674C212.24 134.674 208.313 131.485 208.362 124.367C208.884 125.414 209.506 126.409 210.22 127.336C211.794 129.409 213.562 132.145 213.857 134.33Z" fill="#6C63FF"/>
<path d="M214.355 135.015C214.239 135.09 214.107 135.138 213.97 135.156C213.833 135.174 213.694 135.161 213.562 135.118C209.784 134.234 211.063 121.918 211.063 121.918C211.27 122.015 211.5 123.58 212.367 125.603C213.894 129.158 215.572 134.123 214.355 135.015Z" fill="#6C63FF"/>
<path d="M222.733 127.708C222.733 127.708 222.978 134.333 216.65 135.118L216.26 134.383C216.26 134.383 222.34 129.769 222.733 127.708Z" fill="#6C63FF"/>
<path d="M220.918 124.37C220.968 131.488 215.882 134.677 215.882 134.677L215.737 134.643L214.265 134.333C214.557 132.149 216.328 129.4 217.88 127.342C218.755 126.22 219.777 125.221 220.918 124.37Z" fill="#6C63FF"/>
<path d="M215.696 134.368C215.468 134.644 215.18 134.865 214.854 135.012C214.754 135.057 214.651 135.091 214.544 135.114C213.615 135.331 213.305 134.662 213.342 133.522C213.429 131.492 214.705 127.974 215.848 125.343C216.672 123.446 218.016 122.008 218.22 121.915C218.22 121.919 218.165 131.507 215.696 134.368Z" fill="#6C63FF"/>
<path d="M214.643 117.598C214.643 117.598 210.425 132.567 214.055 134.823C217.685 137.079 215.572 118.922 214.643 117.598Z" fill="#6C63FF"/>
<path opacity="0.1" d="M206.547 127.708C206.547 127.708 205.126 134.333 211.453 135.118L211.846 134.383C211.846 134.383 206.941 129.769 206.547 127.708Z" fill="black"/>
<path opacity="0.1" d="M213.857 134.33L212.385 134.64L212.24 134.674C212.24 134.674 208.313 131.485 208.362 124.367C208.884 125.414 209.506 126.409 210.22 127.336C211.794 129.409 213.562 132.145 213.857 134.33Z" fill="black"/>
<path opacity="0.1" d="M214.355 135.015C214.239 135.09 214.107 135.138 213.97 135.156C213.833 135.174 213.694 135.161 213.562 135.118C209.784 134.234 211.063 121.918 211.063 121.918C211.27 122.015 211.5 123.58 212.367 125.603C213.894 129.158 215.572 134.123 214.355 135.015Z" fill="black"/>
<path opacity="0.1" d="M222.733 127.708C222.733 127.708 222.978 134.333 216.65 135.118L216.26 134.383C216.26 134.383 222.34 129.769 222.733 127.708Z" fill="black"/>
<path opacity="0.1" d="M220.918 124.37C220.968 131.488 215.882 134.677 215.882 134.677L215.737 134.643L214.265 134.333C214.557 132.149 216.328 129.4 217.88 127.342C218.755 126.22 219.777 125.221 220.918 124.37Z" fill="black"/>
<path opacity="0.1" d="M215.696 134.368C215.468 134.644 215.18 134.865 214.854 135.012C214.754 135.057 214.651 135.091 214.544 135.114C213.615 135.331 213.305 134.662 213.342 133.522C213.429 131.492 214.705 127.974 215.848 125.343C216.672 123.446 218.016 122.008 218.22 121.915C218.22 121.919 218.165 131.507 215.696 134.368Z" fill="black"/>
<path opacity="0.1" d="M214.643 117.598C214.643 117.598 210.425 132.567 214.055 134.823C217.685 137.079 215.572 118.922 214.643 117.598Z" fill="black"/>
<path d="M206.547 127.708C206.547 127.708 205.714 134.333 212.042 135.118L212.435 134.383C212.435 134.383 206.941 129.769 206.547 127.708Z" fill="#6C63FF"/>
<path d="M214.445 134.33L212.974 134.64L212.828 134.674C212.828 134.674 208.313 131.485 208.362 124.367C208.362 124.367 209.521 125.606 210.824 127.336C212.382 129.409 214.151 132.145 214.445 134.33Z" fill="#6C63FF"/>
<path opacity="0.1" d="M214.445 134.33L212.974 134.64C211.58 133.416 211.026 130.218 210.824 127.336C212.382 129.409 214.151 132.146 214.445 134.33Z" fill="black"/>
<path d="M214.953 135.015C214.837 135.09 214.705 135.138 214.568 135.156C214.431 135.174 214.292 135.161 214.16 135.118C210.382 134.234 211.063 121.918 211.063 121.918C211.27 122.015 212.088 123.58 212.955 125.603C214.482 129.158 216.155 134.123 214.953 135.015Z" fill="#6C63FF"/>
<path d="M222.733 127.708C222.733 127.708 223.566 134.333 217.239 135.118L216.848 134.383C216.848 134.383 222.34 129.769 222.733 127.708Z" fill="#6C63FF"/>
<path d="M220.918 124.37C220.968 131.498 216.455 134.677 216.455 134.677L216.309 134.643L214.838 134.333C215.129 132.149 216.901 129.4 218.453 127.342C219.763 125.61 220.918 124.37 220.918 124.37Z" fill="#6C63FF"/>
<path opacity="0.1" d="M218.453 127.339C218.264 130.026 217.774 132.985 216.594 134.371C216.511 134.468 216.421 134.559 216.325 134.643L214.854 134.333C215.129 132.146 216.901 129.409 218.453 127.339Z" fill="black"/>
<path d="M216.285 134.368C216.057 134.644 215.769 134.865 215.442 135.012C215.343 135.057 215.239 135.091 215.133 135.114C214.203 135.331 213.878 134.662 213.931 133.522C214.018 131.492 215.294 127.974 216.436 125.343C217.26 123.446 218.022 122.008 218.22 121.915C218.22 121.919 218.753 131.507 216.285 134.368Z" fill="#6C63FF"/>
<path opacity="0.1" d="M214.953 135.015C214.739 135.015 214.53 134.947 214.355 134.823C212.577 133.717 212.543 129.555 212.965 125.603C214.482 129.158 216.155 134.123 214.953 135.015Z" fill="black"/>
<path opacity="0.1" d="M216.285 134.368C216.08 134.808 215.805 135.043 215.442 135.012C215.262 134.987 215.089 134.921 214.937 134.82C214.476 134.503 214.125 134.048 213.934 133.521C214.021 131.492 215.297 127.974 216.44 125.343C216.845 129 216.982 132.871 216.285 134.368Z" fill="black"/>
<path d="M214.643 117.598C214.643 117.598 211.013 132.567 214.643 134.823C218.273 137.079 215.572 118.922 214.643 117.598Z" fill="#6C63FF"/>
<path d="M220.333 135.561L220.079 136.884L219.156 141.743H210.372L209.449 136.884L209.195 135.561H220.333Z" fill="#565661"/>
<path opacity="0.1" d="M220.333 135.561L220.079 136.884H209.449L209.195 135.561H220.333Z" fill="black"/>
<path d="M222.194 134.089H207.089V136.593H222.194V134.089Z" fill="#565661"/>
<path d="M171.2 138.895L162.921 139.562L151.124 138.793L151.329 138.774L162.255 137.721C164.758 136.791 163.023 131.383 163.023 131.383L171.386 131.811L172.052 131.845C175.028 138.793 171.2 138.895 171.2 138.895Z" fill="#D1D9EC"/>
<path opacity="0.1" d="M171.2 138.895L162.921 139.562L151.124 138.793L151.329 138.774L163.253 139.202L171.243 138.334C173.51 137.736 172.213 133.797 171.395 131.811L172.061 131.845C175.028 138.793 171.2 138.895 171.2 138.895Z" fill="black"/>
<path d="M185.685 89.6817L183.155 126L182.823 130.77C182.786 131.295 182.551 131.786 182.165 132.143C181.779 132.501 181.271 132.698 180.745 132.694H179.977L141.882 132.462C141.734 132.461 141.587 132.429 141.452 132.368C141.316 132.307 141.195 132.218 141.095 132.108C140.996 131.997 140.921 131.867 140.874 131.726C140.828 131.584 140.812 131.435 140.826 131.287L141.155 128.067L143.834 101.706C143.876 101.289 144.037 100.893 144.296 100.564C144.556 100.234 144.903 99.9857 145.299 99.8467L181.606 87.2675C182.845 86.8398 184.084 86.9917 184.886 87.6456C185.176 87.8929 185.401 88.2082 185.541 88.5634C185.68 88.9186 185.73 89.3027 185.685 89.6817Z" fill="#4C4C56"/>
<path d="M183.155 126L182.823 130.77C182.786 131.295 182.551 131.786 182.165 132.143C181.779 132.501 181.271 132.698 180.745 132.694H179.977L141.882 132.462C141.734 132.461 141.587 132.429 141.452 132.368C141.316 132.307 141.195 132.218 141.095 132.108C140.996 131.997 140.921 131.867 140.874 131.726C140.828 131.584 140.812 131.435 140.826 131.287L141.155 128.067L183.155 126Z" fill="#DFE6F5"/>
<path d="M157.616 130.977C157.898 130.977 158.127 130.519 158.127 129.954C158.127 129.39 157.898 128.932 157.616 128.932C157.334 128.932 157.105 129.39 157.105 129.954C157.105 130.519 157.334 130.977 157.616 130.977Z" fill="white"/>
<path d="M176.264 140.092C176.264 140.092 186.682 136.156 189.491 139.019C189.491 139.019 189.95 139.887 188.061 140.092L180.426 140.711C180.426 140.711 177.286 141.012 176.264 140.092Z" fill="#D1D9EC"/>
<path d="M176.549 139.069C178.596 138.232 184.756 136.066 188.699 138.449C188.699 138.449 184.335 137.966 181.941 139.351C179.547 140.736 176.27 140.079 176.27 140.079L176.223 139.992C176.179 139.911 176.153 139.822 176.146 139.73C176.138 139.638 176.15 139.545 176.181 139.458C176.212 139.371 176.26 139.292 176.324 139.225C176.387 139.158 176.464 139.105 176.549 139.069Z" fill="#DFE6F5"/>
<path d="M185.685 89.6817L182.823 130.776C182.786 131.301 182.551 131.792 182.165 132.149C181.779 132.507 181.271 132.704 180.745 132.7H179.977C180.505 132.196 180.954 131.615 181.309 130.977C181.309 130.977 184.118 89.691 184.322 88.6683C184.414 88.2852 184.61 87.9353 184.889 87.658C185.177 87.9044 185.4 88.2178 185.539 88.5706C185.678 88.9234 185.728 89.3049 185.685 89.6817Z" fill="#DFE6F5"/>
<path opacity="0.1" d="M185.685 89.6817L182.823 130.776C182.786 131.301 182.551 131.792 182.165 132.149C181.779 132.507 181.271 132.704 180.745 132.7H179.977C180.505 132.196 180.954 131.615 181.309 130.977C181.309 130.977 184.118 89.691 184.322 88.6683C184.414 88.2852 184.61 87.9353 184.889 87.658C185.177 87.9044 185.4 88.2178 185.539 88.5706C185.678 88.9234 185.728 89.3049 185.685 89.6817Z" fill="black"/>
<path opacity="0.1" d="M46.1379 231.106C62.805 231.106 76.3163 228.934 76.3163 226.256C76.3163 223.577 62.805 221.406 46.1379 221.406C29.4708 221.406 15.9595 223.577 15.9595 226.256C15.9595 228.934 29.4708 231.106 46.1379 231.106Z" fill="#6C63FF"/>
<path d="M47.1073 133.342H45.1654V177.092H47.1073V133.342Z" fill="#535461"/>
<path d="M59.3131 176.958L59.1923 178.929L59.0188 181.719L58.9476 182.878L58.7773 185.667L58.7029 186.826L58.5295 189.615L56.5721 221.248C56.487 222.609 55.8869 223.886 54.8938 224.82C53.9007 225.754 52.5893 226.274 51.2265 226.274H41.0462C39.6841 226.274 38.3734 225.753 37.3813 224.819C36.3892 223.885 35.7903 222.608 35.7068 221.248L33.7432 189.593L33.5728 186.804L33.5016 185.645L33.3251 182.856L33.2538 181.697L33.0835 178.908L32.9596 176.937C32.9382 176.559 32.9938 176.181 33.1231 175.825C33.2524 175.47 33.4526 175.144 33.7116 174.868C33.9706 174.593 34.283 174.372 34.6297 174.221C34.9765 174.07 35.3503 173.991 35.7285 173.99H56.5473C56.9272 173.992 57.3026 174.072 57.6504 174.224C57.9983 174.377 58.3114 174.599 58.5704 174.877C58.8294 175.155 59.0289 175.483 59.1566 175.841C59.2843 176.199 59.3375 176.579 59.3131 176.958Z" fill="#565661"/>
<path d="M59.1923 178.929L59.0188 181.709H33.2569L33.0835 178.929H59.1923Z" fill="#9D9CB5"/>
<path d="M58.9476 182.872L58.7773 185.654H33.5016L33.3282 182.872H58.9476Z" fill="#9D9CB5"/>
<path d="M58.7029 186.814L58.5295 189.593H33.7432L33.5728 186.814H58.7029Z" fill="#9D9CB5"/>
<path d="M30.1165 149.739C41.4272 157.927 46.1379 170.732 46.1379 170.732C46.1379 170.732 32.5105 170.264 21.1967 162.077C9.88293 153.889 5.1784 141.086 5.1784 141.086C5.1784 141.086 18.8088 141.554 30.1165 149.739Z" fill="#6C63FF"/>
<path d="M5.1784 141.086C5.1784 141.086 19.323 148.933 23.8603 155.441C28.3976 161.95 46.1348 170.726 46.1348 170.726" stroke="#535461" stroke-width="2" stroke-miterlimit="10"/>
<path d="M37.4164 133.246C43.5735 137.699 46.1379 144.672 46.1379 144.672C46.1379 144.672 38.7048 144.415 32.5632 139.961C26.4216 135.508 23.8603 128.535 23.8603 128.535C23.8603 128.535 31.2624 128.789 37.4164 133.246Z" fill="#6C63FF"/>
<path d="M23.8603 128.535C23.8603 128.535 31.5597 132.812 34.0281 136.351C36.4965 139.89 46.1534 144.672 46.1534 144.672" stroke="#535461" stroke-width="2" stroke-miterlimit="10"/>
<path d="M55.0824 144.316C48.0178 152.091 46.5157 162.259 46.5157 162.259C46.5157 162.259 56.4854 159.811 63.5499 152.032C70.6145 144.254 72.1166 134.095 72.1166 134.095C72.1166 134.095 62.1531 136.537 55.0824 144.316Z" fill="#6C63FF"/>
<path d="M72.1227 134.092C72.1227 134.092 62.9119 142.063 60.5705 147.554C58.229 153.046 46.5157 162.259 46.5157 162.259" stroke="#535461" stroke-width="2" stroke-miterlimit="10"/>
<g opacity="0.87">
<path opacity="0.87" d="M253.624 48.6651C252.434 47.4534 251.177 46.1053 250.942 44.3512C250.759 42.9938 251.251 41.6209 251.92 40.4618C252.589 39.3027 253.469 38.2924 254.209 37.1768C255.138 35.7419 255.844 34.1272 256.897 32.7884C258.523 30.7213 260.893 29.4755 263.327 28.8402C265.761 28.2049 268.282 28.1274 270.791 28.053C272.798 27.9941 274.839 27.9415 276.778 28.5024C278.196 28.9115 279.519 29.6398 280.823 30.3618C282.653 31.3814 284.505 32.4351 285.982 33.9909C287.439 35.5432 288.452 37.4577 288.918 39.5352C289.445 41.8192 289.293 44.345 288.209 46.3842C287.725 47.2292 287.162 48.0261 286.527 48.7643L284.62 51.1227C284.222 51.6639 283.748 52.145 283.213 52.5514C282.531 52.9598 281.776 53.2313 280.99 53.3509C275.646 54.4859 270.199 55.0654 264.736 55.0802C262.763 55.0802 261.168 53.9956 259.35 53.2208C257.133 52.2415 255.343 50.413 253.624 48.6651Z" fill="#454B69"/>
<path opacity="0.1" d="M255.46 48.6651C254.333 47.4534 253.14 46.1053 252.914 44.3512C252.744 42.9938 253.199 41.6209 253.844 40.4618C254.488 39.3027 255.321 38.2924 256.012 37.1768C256.9 35.7419 257.56 34.1272 258.56 32.7884C260.109 30.7213 262.351 29.4755 264.662 28.8402C266.972 28.2049 269.366 28.1274 271.739 28.053C273.643 27.9941 275.576 27.9415 277.416 28.5024C278.763 28.9115 280.014 29.6398 281.253 30.3618C282.987 31.3814 284.747 32.4351 286.147 33.9909C287.537 35.5608 288.498 37.4646 288.934 39.5166C289.433 41.8006 289.287 44.3264 288.262 46.3656C287.805 47.2065 287.271 48.0033 286.667 48.7457L284.855 51.1041C284.483 51.6434 284.034 52.1257 283.523 52.5359C282.881 52.9421 282.164 53.2141 281.414 53.3355C276.354 54.4697 271.185 55.0495 266 55.0647C264.141 55.0647 262.618 53.9801 260.893 53.2053C258.79 52.2415 257.089 50.413 255.46 48.6651Z" fill="black"/>
<path opacity="0.87" d="M255.566 29.4724C256.949 28.0029 258.411 26.6094 259.945 25.2979C262.215 23.3517 264.944 21.4613 268.18 21.3342C270.131 21.3117 272.054 21.8033 273.755 22.7598C275.424 23.6554 276.852 24.8238 278.277 25.9828L283.904 30.5881C284.375 30.9724 284.867 31.3908 284.991 31.93C285.02 32.0732 285.016 32.2209 284.98 32.3625C284.945 32.5041 284.878 32.636 284.786 32.7487C284.693 32.8614 284.576 32.9521 284.444 33.0141C284.312 33.0762 284.168 33.1082 284.022 33.1077C283.732 33.0687 283.455 32.9626 283.214 32.7977C279.477 30.7838 275.321 29.6737 271.079 29.5563C266.836 29.439 262.625 30.3178 258.783 32.1221C257.833 32.5746 255.996 34.2109 255.027 33.5477C253.642 32.5901 254.723 30.365 255.566 29.4724Z" fill="#454B69"/>
<path opacity="0.1" d="M278.376 47.472C274.659 46.5826 270.661 46.6104 266.743 46.6476C264.089 46.6724 261.323 46.7158 258.96 47.5588C257.34 48.1383 255.891 49.2943 256.197 50.5432C256.504 51.7921 258.272 52.5018 259.864 53.0659C263.271 54.2745 266.932 55.5141 270.704 55.1639C274.613 54.8045 287.395 49.6383 278.376 47.472Z" fill="black"/>
<path opacity="0.87" d="M258.437 48.3397C256.91 48.3397 256.513 50.4719 256.767 51.975C257.021 53.478 257.17 55.4862 255.761 56.0689C255.278 56.2155 254.771 56.2681 254.268 56.2238C250.861 56.2393 247.826 58.2692 245.026 60.2186C244.546 60.5564 244.041 60.919 243.812 61.4582C243.645 61.8518 243.629 62.3167 243.354 62.639C243.06 62.906 242.695 63.0815 242.304 63.1441C240.687 63.6502 239.273 64.6602 238.271 66.0267C237.268 67.3932 236.727 69.0446 236.729 70.74C233.198 71.9332 230.782 75.8008 231.262 79.4981C230.003 79.9089 228.919 80.7344 228.188 81.8402C227.457 82.946 227.121 84.2669 227.236 85.5878C224.216 86.9669 222.841 91.1011 224.449 94.0142C225.009 95.0369 225.83 96.4098 224.957 97.1815C226.031 98.6381 227.202 100.169 228.902 100.786C230.603 101.402 232.929 100.581 233.207 98.793C234.02 99.2336 234.937 99.4434 235.86 99.3999C236.783 99.3563 237.677 99.061 238.444 98.5459C239.212 98.0308 239.824 97.3155 240.214 96.4774C240.604 95.6393 240.758 94.7104 240.659 93.7911C243.248 93.3851 244.995 90.2519 244.01 87.8253L246.596 86.6787C245.905 87.5301 245.49 88.572 245.406 89.6655C245.322 90.759 245.573 91.8522 246.125 92.7994C246.392 93.1446 246.584 93.5414 246.689 93.9647C246.788 94.7115 246.2 95.3499 245.76 95.976C245.212 96.8175 244.912 97.7969 244.896 98.8013C244.879 99.8058 245.147 100.794 245.667 101.654C245.977 102.162 246.404 102.651 246.432 103.25C246.463 103.962 245.933 104.557 245.587 105.18C244.038 107.954 246.178 111.264 248.197 113.703C245.652 116.229 246.729 120.905 249.554 123.115C252.379 125.324 256.241 125.616 259.818 125.368C263.395 125.12 266.994 124.438 270.534 124.999C272.392 125.309 274.17 125.947 276.028 126.192C279.218 126.614 282.452 125.833 285.481 124.748C287.122 124.159 288.888 123.338 289.578 121.739C290.359 119.941 289.51 117.89 289.473 115.931C289.417 112.993 291.204 110.325 291.579 107.409C291.808 105.623 291.501 103.823 291.269 102.041C290.613 96.9961 290.56 91.891 291.111 86.8336L292.04 88.2468C292.147 88.2622 292.255 88.2542 292.358 88.2233C292.461 88.1924 292.556 88.1393 292.636 88.0679C292.716 87.9965 292.78 87.9083 292.822 87.8097C292.865 87.711 292.886 87.6043 292.883 87.4968C293.066 89.4245 291.687 91.9626 293.347 92.9606C293.837 93.2705 294.441 93.2705 294.995 93.3975C296.045 93.7044 296.945 94.3886 297.522 95.319C298.389 96.6144 298.761 98.2135 299.771 99.416C300.78 100.618 302.84 101.201 303.819 99.9831C306.836 100.03 309.76 98.9413 312.014 96.9336C311.758 96.6254 311.569 96.2674 311.458 95.8822C311.348 95.497 311.319 95.0931 311.373 94.696C313.259 94.7208 314.052 92.0928 313.355 90.3356C312.658 88.5784 311.14 87.2365 310.456 85.4824C309.836 83.8926 309.908 81.9959 308.839 80.6633C308.334 80.028 307.6 79.591 307.133 78.934C306.547 78.1314 306.396 77.1056 306.117 76.1448C305.351 73.5576 303.608 71.3709 301.257 70.0489C301.942 66.8537 299.709 63.64 296.531 62.8404C296.167 62.7753 295.811 62.6714 295.469 62.5305C294.314 61.9541 294.097 60.4293 293.403 59.3384C292.297 57.5967 290.04 57.073 288.011 56.7011L281.885 55.5668C281.527 55.5343 281.184 55.4023 280.897 55.1856C280.654 54.9239 280.508 54.5872 280.482 54.2311C280.228 52.4553 281.101 50.6795 280.965 48.8914C280.919 48.3552 280.68 47.723 280.151 47.6331C279.864 47.6166 279.578 47.6845 279.33 47.8284C277.185 48.7421 274.966 49.4679 272.696 49.9977C271.032 50.4638 269.327 50.7628 267.604 50.8903C264.303 51.0514 261.1 50.3015 258.437 48.3397Z" fill="#454B69"/>
<path opacity="0.87" d="M282.38 32.116C283.269 31.4961 284.183 30.8267 284.799 29.804C285.416 28.7813 285.654 27.2876 285.109 26.2184C285.843 27.4828 286.5 28.9332 286.472 30.5013C286.444 32.0695 285.487 33.6903 284.239 33.6655C285.168 33.588 286.171 33.4734 286.874 32.7048C287.577 31.9362 287.704 30.2689 286.874 29.7204C287.258 30.1546 287.542 30.6676 287.706 31.2234C287.87 31.7791 287.911 32.3641 287.825 32.9372C287.655 34.118 286.949 35.1531 286.044 35.5405C286.837 33.4703 289.141 32.6025 290.721 33.7895C289.246 34.4503 288.048 35.6056 287.333 37.0559C288.29 36.34 289.622 35.6737 290.402 36.6685C288.894 36.9784 287.503 38.1065 286.685 39.7273C288.243 39.526 289.818 39.4855 291.384 39.6065C289.647 40.036 288.121 41.0712 287.079 42.5258C288.224 42.8513 289.346 43.254 290.436 43.7314C289.545 44.1949 288.546 44.409 287.543 44.3512C289.402 45.6962 290.727 48.1259 291.056 50.7818C290.414 50.1473 289.693 49.5975 288.912 49.1455C288.293 48.7953 287.568 48.5257 286.983 48.9348C286.397 49.3438 286.348 50.7136 287.008 50.8779L284.319 50.6826C284.775 51.0058 285.159 51.421 285.444 51.9013C285.73 52.3817 285.913 52.9167 285.979 53.4718C285.46 53.4313 284.957 53.2689 284.511 52.9977C285.669 54.0476 286.549 55.3678 287.073 56.8406C285.97 55.979 284.781 55.0865 283.483 55.1206C282.532 55.1453 281.625 55.6691 280.696 55.8302C279.023 56.1185 277.252 55.1484 276.279 53.413C277.415 53.2405 278.573 53.2974 279.686 53.5803C279.5 52.345 279.175 51.1348 278.717 49.973C279.353 50.391 279.906 50.925 280.346 51.5473C280.528 49.9168 280.495 48.2694 280.247 46.6476L281.659 48.1135C281.522 47.0233 281.272 45.9503 280.912 44.9121C281.609 46.231 282.538 47.4123 283.656 48.3986L281.572 44.7913L285.013 47.2829C285.369 46.9947 285.1 46.2974 284.799 45.9224C283.877 44.7647 282.8 43.7386 281.6 42.8729C282.546 43.018 283.467 43.2922 284.338 43.688C283.963 41.7479 282.334 40.3255 280.754 40.561C281.918 39.8652 283.215 39.4237 284.561 39.2656C283.214 38.215 281.464 37.1675 280.147 38.3049C281.406 38.0064 282.623 37.5503 283.768 36.9474C283.435 36.5381 282.976 36.2515 282.462 36.1331C281.948 36.0146 281.409 36.0711 280.931 36.2935C280.002 36.7615 279.296 37.9361 279.215 39.2036C279.169 37.3813 280.259 35.6117 281.693 35.2058C281.139 34.9237 280.562 34.6355 279.965 34.682C279.634 34.7175 279.326 34.864 279.09 35.0976C278.853 35.3312 278.703 35.6381 278.664 35.9681C278.831 34.8303 279.213 33.7345 279.788 32.7389C279.001 32.3267 278.051 32.9248 277.62 33.8452C277.19 34.7657 277.174 35.9061 277.31 36.9629C277.445 34.6857 277.341 32.4006 277.001 30.1449C276.64 31.9224 276.527 33.7413 276.666 35.5498" fill="#6C63FF"/>
<path opacity="0.2" d="M269.701 50.8903H267.601V124.887H269.701V50.8903Z" fill="white"/>
<path opacity="0.1" d="M287.358 240.192C314.561 240.192 336.614 235.351 336.614 229.38C336.614 223.408 314.561 218.567 287.358 218.567C260.154 218.567 238.101 223.408 238.101 229.38C238.101 235.351 260.154 240.192 287.358 240.192Z" fill="#6C63FF"/>
<path opacity="0.87" d="M295.983 28.3505H292.356V238.094H295.983V28.3505Z" fill="#565661"/>
<path opacity="0.87" d="M294.171 43.6849C303.18 43.6849 310.484 42.5041 310.484 41.0475C310.484 39.591 303.18 38.4102 294.171 38.4102C285.162 38.4102 277.859 39.591 277.859 41.0475C277.859 42.5041 285.162 43.6849 294.171 43.6849Z" stroke="#565661" stroke-width="9" stroke-miterlimit="10"/>
<path opacity="0.87" d="M272.665 27.2318C271.513 27.5177 270.458 28.1026 269.605 28.9276C268.751 29.7525 268.131 30.7882 267.806 31.93C267.481 33.0717 267.463 34.279 267.754 35.43C268.045 36.5809 268.634 37.6346 269.462 38.4846C271.361 40.4339 274.201 41.0475 276.849 41.6674C281.931 42.8574 287.379 44.7231 290.129 49.1579C291 50.5843 291.539 52.1882 291.707 53.8511C291.874 55.514 291.667 57.1933 291.099 58.7651C290.84 59.5464 290.412 60.2608 289.845 60.857C289.128 61.4815 288.282 61.9378 287.367 62.1927C283.25 63.5575 278.822 63.6761 274.638 62.5336" stroke="#565661" stroke-width="9" stroke-miterlimit="10"/>
<path opacity="0.87" d="M315.098 27.2318C316.249 27.5185 317.304 28.1039 318.157 28.9289C319.009 29.754 319.629 30.7894 319.954 31.9308C320.279 33.0722 320.297 34.2791 320.007 35.4298C319.717 36.5805 319.128 37.6342 318.301 38.4846C316.402 40.4339 313.562 41.0475 310.914 41.6674C305.832 42.8574 300.384 44.7231 297.634 49.1579C296.763 50.5843 296.224 52.1882 296.057 53.8511C295.889 55.514 296.097 57.1933 296.664 58.7651C296.919 59.5451 297.342 60.2593 297.903 60.857C298.619 61.4815 299.466 61.9378 300.381 62.1927C304.498 63.5575 308.926 63.6761 313.11 62.5336" stroke="#565661" stroke-width="9" stroke-miterlimit="10"/>
<path opacity="0.87" d="M294.171 167.683C302.544 167.683 309.332 165.764 309.332 163.397C309.332 161.03 302.544 159.111 294.171 159.111C285.798 159.111 279.011 161.03 279.011 163.397C279.011 165.764 285.798 167.683 294.171 167.683Z" stroke="#565661" stroke-width="9" stroke-miterlimit="10"/>
<path opacity="0.87" d="M294.171 221.545C302.544 221.545 309.332 219.626 309.332 217.259C309.332 214.892 302.544 212.973 294.171 212.973C285.798 212.973 279.011 214.892 279.011 217.259C279.011 219.626 285.798 221.545 294.171 221.545Z" stroke="#565661" stroke-width="9" stroke-miterlimit="10"/>
<path opacity="0.87" d="M279.472 164.702C285.398 170.318 289.508 177.581 291.272 185.555C291.613 187.015 291.82 188.502 291.892 189.999C292.009 193.408 291.145 196.793 290.033 200.025C287.937 206.143 284.821 212.087 279.934 216.314C275.548 220.107 270.023 222.286 264.526 224.127" stroke="#565661" stroke-width="9" stroke-miterlimit="10"/>
<path opacity="0.87" d="M308.867 164.702C302.941 170.318 298.832 177.581 297.067 185.555C296.728 187.015 296.521 188.503 296.448 189.999C296.33 193.408 297.194 196.793 298.306 200.025C300.4 206.143 303.515 212.087 308.406 216.314C312.788 220.107 318.316 222.286 323.811 224.127" stroke="#565661" stroke-width="9" stroke-miterlimit="10"/>
<path opacity="0.87" d="M268.425 25.5614H260.391V28.8495H268.425V25.5614Z" fill="#454B69"/>
<path opacity="0.87" d="M277.902 35.5652L276.276 31.0251C276.129 30.4935 275.862 30.0027 275.496 29.5902C275.111 29.2338 274.489 29.1501 274.151 29.5685C274.712 30.3249 275.156 31.1605 275.471 32.0478C275.753 32.9775 275.753 34.056 275.266 34.8369C275.005 32.2348 273.89 29.7924 272.095 27.8919C272.743 29.2208 273.275 30.6029 273.687 32.023L271.472 29.4166C270.996 31.3905 271.007 33.4507 271.503 35.4196C270.287 33.9124 269.61 32.0414 269.58 30.1046C269.563 30.9265 269.396 31.7384 269.088 32.5002C268.475 31.7873 268.144 30.8744 268.158 29.9342C267.588 30.8052 267.214 31.7896 267.06 32.8195C266.907 33.8494 266.978 34.9003 267.27 35.8999C266.208 34.1662 265.632 32.1782 265.603 30.1449C264.934 32.1869 264.749 34.3565 265.061 36.4826C263.794 35.0769 263.017 33.2978 262.847 31.4124C262.89 33.3462 263.203 35.2645 263.776 37.1117C262.751 36.8235 262.178 35.6086 261.633 34.5642C261.088 33.5198 260.227 32.4228 259.183 32.6118C260.152 33.6753 260.737 35.0323 260.846 36.4671C260.341 36.3989 259.96 35.8782 259.465 35.7574C258.765 35.59 258.059 36.4268 258.17 37.2387C258.282 38.0507 259.115 38.5962 259.793 38.3451C259.315 38.1485 258.79 38.098 258.283 38.2C257.777 38.3021 257.312 38.5521 256.947 38.9185C256.553 39.3325 256.261 39.8325 256.094 40.379C255.927 40.9256 255.889 41.5035 255.984 42.0671C256.386 40.8957 257.603 40.186 258.66 40.5176C257.04 40.7531 255.674 42.4421 255.562 44.3202C255.959 44.0444 256.148 43.5082 256.473 43.1301C256.798 42.752 257.452 42.6157 257.647 43.0991C257.713 43.3373 257.707 43.5899 257.628 43.8243L256.801 47.4379L261.007 45.6001C260.74 47.3098 260.211 48.9678 259.437 50.5153L261.816 49.7343C260.815 50.7783 260.142 52.0928 259.88 53.5152C260.124 52.2446 261.763 51.2126 262.785 51.2715C262.983 53.2518 261.97 54.6991 260.307 54.8168C257.932 54.9873 255.798 54.5751 253.444 55.4087C253.908 54.7456 254.545 54.2219 255.285 53.8942C256.025 53.5665 256.841 53.4472 257.644 53.5493C256.445 51.8727 254.299 51.1971 252.527 51.944C252.856 51.4613 253.3 51.0689 253.82 50.8025C254.339 50.5361 254.917 50.4043 255.5 50.4192C254.689 49.068 252.964 48.5876 251.707 49.3624C252.201 48.4234 253.004 47.6835 253.98 47.2674C253.082 46.4741 251.812 46.4121 250.74 46.784C249.669 47.1559 248.705 47.9058 247.776 48.6434C247.616 48.1832 247.578 47.6895 247.665 47.21C247.752 46.7306 247.961 46.2818 248.272 45.9069C248.562 45.5759 248.954 45.3515 249.386 45.2694C249.818 45.1874 250.266 45.2526 250.657 45.4545C250.273 44.3078 249.173 43.5423 248.117 43.6818C248.431 43.2285 248.887 42.8917 249.412 42.7236C249.937 42.5555 250.503 42.5655 251.022 42.752C251.042 42.032 250.901 41.3166 250.608 40.6585C250.316 40.0004 249.879 39.4164 249.331 38.9494C250.128 39.1785 250.829 39.6603 251.329 40.3223C251.446 39.7931 251.455 39.2453 251.355 38.7125C251.254 38.1797 251.046 37.673 250.743 37.2232C250.151 36.3926 249.432 35.6605 248.612 35.0539C250.242 34.56 251.983 34.5686 253.608 35.0787L252.183 30.0086L255.054 33.6221C254.73 31.7816 254.634 29.9078 254.77 28.0437C255.142 29.3686 255.71 30.6304 256.454 31.7874C256.24 30.0877 256.118 28.3776 256.089 26.6646C256.089 26.2277 256.12 25.7039 256.451 25.4901C256.783 25.2762 257.151 25.4901 257.38 25.8C257.572 26.1413 257.709 26.5104 257.786 26.894C258.121 28.0985 258.784 29.1864 259.7 30.0364C259.715 29.1505 259.916 28.2776 260.289 27.4741C260.663 26.6707 261.201 25.9547 261.868 25.3723C261.889 26.7522 262.075 28.1246 262.423 29.46C261.493 29.4011 260.976 28.0592 261.252 27.0427C261.527 26.0262 262.32 25.3227 263.11 24.7711C263.9 24.2194 264.752 23.7174 265.309 22.8713C265.121 24.855 265.255 26.856 265.706 28.7968C265.997 27.458 265.978 26.0417 266.353 24.7308C266.728 23.4199 267.681 22.1647 268.874 22.205C268.379 22.9028 267.994 23.672 267.731 24.486C267.499 25.3258 267.536 26.3175 268.016 27.0055C268.186 25.7659 268.363 24.4922 268.843 23.3579C269.323 22.2236 270.153 21.2195 271.218 20.9344C270.611 23.0447 270.77 25.3019 271.667 27.3061C271.667 25.5025 272.169 23.4695 273.566 22.6575C273.245 23.1849 273.044 23.7764 272.977 24.3902C272.911 25.0039 272.979 25.6249 273.179 26.2091C273.139 24.5377 273.569 22.8887 274.418 21.4489C274.417 23.5406 274.765 25.6177 275.449 27.5944C276.257 25.8553 277.377 24.2796 278.754 22.9457C278.442 24.935 278.641 26.971 279.333 28.8619C279.25 27.9934 279.285 27.1176 279.438 26.2586C279.633 25.4157 280.11 24.6099 280.819 24.3093L280.953 30.1666C282.449 29.3175 282.953 26.7576 281.928 25.2483C283.136 25.9673 284.406 26.7638 285.072 28.1336C285.738 29.5034 285.422 31.6139 284.143 32.1128" fill="#6C63FF"/>
<path opacity="0.87" d="M267.446 26.2184H265.594C263.882 26.2184 262.494 27.6073 262.494 29.3206C262.494 31.0339 263.882 32.4228 265.594 32.4228H267.446C269.158 32.4228 270.546 31.0339 270.546 29.3206C270.546 27.6073 269.158 26.2184 267.446 26.2184Z" fill="#6C63FF"/>
</g>
</g>
<defs>
<linearGradient id="paint0_linear" x1="93.1089" y1="57.1257" x2="93.5301" y2="57.1257" gradientUnits="userSpaceOnUse">
<stop stop-color="#808080" stop-opacity="0.25"/>
<stop offset="0.54" stop-color="#808080" stop-opacity="0.12"/>
<stop offset="1" stop-color="#808080" stop-opacity="0.1"/>
</linearGradient>
<linearGradient id="paint1_linear" x1="898.144" y1="132.951" x2="916.554" y2="132.951" gradientUnits="userSpaceOnUse">
<stop stop-color="#808080" stop-opacity="0.25"/>
<stop offset="0.54" stop-color="#808080" stop-opacity="0.12"/>
<stop offset="1" stop-color="#808080" stop-opacity="0.1"/>
</linearGradient>
<linearGradient id="paint2_linear" x1="460.554" y1="523.962" x2="462.221" y2="523.962" gradientUnits="userSpaceOnUse">
<stop stop-color="#808080" stop-opacity="0.25"/>
<stop offset="0.54" stop-color="#808080" stop-opacity="0.12"/>
<stop offset="1" stop-color="#808080" stop-opacity="0.1"/>
</linearGradient>
<clipPath id="clip0">
<rect width="350" height="252" fill="white"/>
</clipPath>
</defs>
</svg>
