<svg width="32" height="33" viewBox="0 0 32 33" fill="none" xmlns="http://www.w3.org/2000/svg">
<path d="M28.125 0.75H3.375C1.47656 0.75 0 2.29688 0 4.125V28.875C0 30.7734 1.47656 32.25 3.375 32.25H28.125C29.9531 32.25 31.5 30.7734 31.5 28.875V4.125C31.5 2.29688 29.9531 0.75 28.125 0.75ZM24.6797 11.9297C24.6797 12.1406 24.6797 12.3516 24.6797 12.5625C24.6797 18.6094 20.0391 25.6406 11.5312 25.6406C8.92969 25.6406 6.53906 24.9375 4.5 23.6016C4.85156 23.6719 5.20312 23.6719 5.55469 23.6719C7.73438 23.6719 9.70312 22.8984 11.3203 21.7031C9.28125 21.6328 7.59375 20.2969 6.96094 18.4688C7.73438 18.6094 8.36719 18.6094 9.07031 18.3984C6.96094 17.9766 5.41406 16.1484 5.41406 13.8984V13.8281C5.97656 14.1797 6.67969 14.3906 7.45312 14.3906C6.1875 13.5469 5.41406 12.1406 5.41406 10.5938C5.41406 9.67969 5.625 8.90625 6.04688 8.20312C8.29688 11.0156 11.7422 12.8438 15.5391 13.0547C14.9062 9.96094 17.2266 7.35938 20.0391 7.35938C21.375 7.35938 22.5703 7.92188 23.4141 8.83594C24.4688 8.625 25.4531 8.27344 26.3672 7.71094C26.0156 8.83594 25.2422 9.67969 24.3281 10.2422C25.2422 10.1719 26.1562 9.89062 27 9.53906C26.3672 10.4531 25.5234 11.2969 24.6797 11.9297Z" fill="black"/>
</svg>
